P3 22 24 255
153 153 153
153 153 153
153 153 153
153 153 153
153 153 153
153 153 153
153 153 153
153 153 153
153 153 153
77 77 204
153 153 153
77 77 204
153 153 153
77 77 204
153 153 153
153 153 153
153 153 153
153 153 153
153 153 153
153 153 153
153 153 153
153 153 153
153 153 153
0 0 0
0 0 0
0 0 0
0 0 0
0 0 0
0 0 0
0 0 0
0 0 128
153 153 153
77 77 204
153 153 153
77 77 204
0 0 0
0 0 128
0 0 0
0 0 0
0 0 0
0 0 0
0 0 0
0 0 0
153 153 153
153 153 153
0 0 0
128 255 128
128 255 128
128 255 128
128 255 128
64 128 191
64 128 191
0 0 0
0 0 0
0 0 0
0 0 0
0 0 0
0 0 0
128 255 128
64 128 191
128 255 128
128 255 128
128 255 128
128 255 128
0 0 0
153 153 153
153 153 153
0 0 0
128 255 128
128 255 128
128 255 128
0 128 128
128 255 128
128 255 128
128 255 128
255 255 255
255 255 255
255 255 255
255 255 255
128 255 128
128 255 128
128 255 128
0 128 128
128 255 128
128 255 128
128 255 128
0 0 0
153 153 153
153 153 153
0 0 0
128 255 128
128 255 128
128 255 128
128 255 128
128 255 128
128 255 128
128 255 128
255 255 255
255 255 255
255 255 255
255 255 255
128 255 128
128 255 128
128 255 128
128 255 128
128 255 128
128 255 128
128 255 128
0 0 0
153 153 153
153 153 153
0 0 0
128 255 128
128 255 128
128 255 128
128 255 128
128 255 128
128 255 128
128 255 128
255 255 255
255 255 255
255 255 255
255 255 255
128 255 128
128 255 128
128 255 128
128 255 128
128 255 128
128 255 128
128 255 128
0 0 0
153 153 153
153 153 153
0 0 0
0 0 0
0 0 0
0 0 0
0 0 0
0 0 0
0 0 0
0 0 0
0 0 0
0 0 0
0 0 0
0 0 0
0 0 0
0 0 0
0 0 0
0 0 0
0 0 0
0 0 0
0 0 0
0 0 0
153 153 153
153 153 153
153 153 153
153 153 153
153 153 153
153 153 153
153 153 153
153 153 153
153 153 153
153 153 153
153 153 153
153 153 153
153 153 153
153 153 153
153 153 153
153 153 153
153 153 153
153 153 153
153 153 153
153 153 153
153 153 153
153 153 153
153 153 153
0 0 0
0 0 0
0 0 0
0 0 0
0 0 0
0 0 0
0 0 0
0 0 0
0 0 0
0 0 0
0 0 0
0 0 0
0 0 0
0 0 0
0 0 0
0 0 0
0 0 0
0 0 0
0 0 0
0 0 0
0 0 0
0 0 0
0 0 0
0 0 0
0 0 0
0 0 0
0 0 0
0 0 0
0 0 0
0 0 0
0 0 0
0 0 0
0 0 0
0 0 0
0 0 0
0 0 0
0 0 0
0 0 0
0 0 0
0 0 0
0 0 0
0 0 0
0 0 0
0 0 0
0 0 0
0 0 0
255 255 255
255 255 255
255 255 255
255 255 255
255 255 255
255 255 255
0 0 0
0 0 0
0 0 0
0 0 0
0 0 0
0 0 0
255 255 255
255 255 255
255 255 255
255 255 255
255 255 255
255 255 255
0 0 0
0 0 0
0 0 0
0 0 0
255 255 255
255 255 255
255 255 255
255 255 255
239 247 239
224 239 224
208 232 208
193 224 193
193 224 193
193 224 193
193 224 193
208 232 208
224 239 224
239 247 239
255 255 255
255 255 255
255 255 255
255 255 255
0 0 0
0 0 0
0 0 0
0 0 0
255 255 255
255 255 255
255 255 255
255 255 255
239 247 239
224 239 224
208 232 208
193 224 193
193 224 193
193 224 193
193 224 193
208 232 208
224 239 224
239 247 239
255 255 255
255 255 255
255 255 255
255 255 255
0 0 0
0 0 0
0 0 0
0 0 0
255 255 255
255 255 255
255 255 255
255 255 255
239 247 239
224 239 224
208 232 208
193 224 193
193 224 193
193 224 193
193 224 193
208 232 208
224 239 224
239 247 239
255 255 255
255 255 255
255 255 255
255 255 255
0 0 0
0 0 0
0 0 0
0 0 0
0 0 0
0 0 0
0 0 0
0 0 0
0 0 0
0 0 0
0 0 0
0 0 0
0 0 0
0 0 0
0 0 0
0 0 0
0 0 0
0 0 0
0 0 0
0 0 0
0 0 0
0 0 0
0 0 0
0 0 0
0 0 0
0 0 0
0 0 0
0 0 0
0 0 0
0 0 0
0 0 0
0 0 0
0 0 0
0 0 0
0 0 0
0 0 0
0 0 0
0 0 0
0 0 0
0 0 0
0 0 0
0 0 0
0 0 0
0 0 0
0 0 0
0 0 0
0 0 0
0 0 0
0 0 0
0 0 0
0 0 0
0 0 0
0 0 0
0 0 0
0 0 0
0 0 0
0 0 0
0 0 0
0 0 0
0 0 0
0 0 0
0 0 0
0 0 0
0 0 0
0 0 0
0 0 0
0 0 0
0 0 0
0 0 0
0 0 0
0 0 0
0 0 0
0 0 0
0 0 0
0 0 0
0 0 0
0 0 0
0 0 0
0 0 0
0 0 0
0 0 0
0 0 0
0 0 0
0 0 0
0 0 0
0 0 0
0 0 0
0 0 0
0 0 0
0 0 0
0 0 0
0 0 0
97 190 190
90 195 195
83 199 199
83 199 199
77 77 204
77 77 204
0 0 0
0 0 0
0 0 0
0 0 0
0 0 0
0 0 0
83 199 199
77 77 204
83 199 199
83 199 199
90 195 195
97 190 190
0 0 0
0 0 0
0 0 0
0 0 0
97 190 190
90 195 195
83 199 199
77 77 204
83 199 199
83 199 199
83 199 199
151 255 255
151 255 255
151 255 255
151 255 255
90 195 195
83 199 199
83 199 199
77 77 204
83 199 199
90 195 195
97 190 190
0 0 0
0 0 0
0 0 0
0 0 0
97 190 190
90 195 195
83 199 199
83 199 199
83 199 199
90 195 195
90 195 195
151 255 255
162 255 255
162 255 255
162 255 255
90 195 195
90 195 195
83 199 199
83 199 199
83 199 199
90 195 195
97 190 190
0 0 0
0 0 0
0 0 0
0 0 0
97 190 190
90 195 195
90 195 195
90 195 195
90 195 195
90 195 195
97 190 190
162 255 255
162 255 255
174 255 255
162 255 255
97 190 190
90 195 195
90 195 195
90 195 195
90 195 195
90 195 195
97 190 190
0 0 0
0 0 0
0 0 0
0 0 0
0 0 0
0 0 0
0 0 0
0 0 0
0 0 0
0 0 0
0 0 0
0 0 0
0 0 0
0 0 0
0 0 0
0 0 0
0 0 0
0 0 0
0 0 0
0 0 0
0 0 0
0 0 0
0 0 0
0 0 0
0 0 0
0 0 0
0 0 0
0 0 0
0 0 0
0 0 0
0 0 0
0 0 0
0 0 0
0 0 0
0 0 0
0 0 0
0 0 0
0 0 0
0 0 0
0 0 0
0 0 0
0 0 0
0 0 0
0 0 0
0 0 0
0 0 0
