P3 22 24 255
153 153 153
153 153 153
153 153 153
153 153 153
153 153 153
153 153 153
153 153 153
153 153 153
153 153 153
153 153 153
153 153 153
153 153 153
153 153 153
153 153 153
153 153 153
153 153 153
153 153 153
153 153 153
153 153 153
153 153 153
153 153 153
153 153 153
153 153 153
0 0 0
0 0 0
0 0 0
0 0 0
0 0 0
0 0 0
0 0 0
0 0 0
153 153 153
153 153 153
153 153 153
153 153 153
0 0 0
0 0 0
0 0 0
0 0 0
0 0 0
0 0 0
0 0 0
0 0 0
153 153 153
153 153 153
0 0 0
255 255 255
255 255 255
255 255 255
255 255 255
255 255 255
128 128 255
0 0 0
0 0 0
0 0 0
0 0 0
0 0 0
0 0 0
255 255 255
255 255 255
255 255 255
255 255 255
255 255 255
255 255 255
0 0 0
153 153 153
153 153 153
0 0 0
255 255 255
255 255 255
255 255 255
255 255 255
255 255 255
255 255 255
255 255 255
255 255 255
255 255 255
255 255 255
255 255 255
255 255 255
255 255 255
255 255 255
255 255 255
255 255 255
255 255 255
255 255 255
0 0 0
153 153 153
153 153 153
0 0 0
255 255 255
255 255 255
255 255 255
255 255 255
255 255 255
255 255 255
255 255 255
255 255 255
255 255 255
255 255 255
255 255 255
255 255 255
255 255 255
255 255 255
255 255 255
255 255 255
255 255 255
255 255 255
0 0 0
153 153 153
153 153 153
0 0 0
255 255 255
255 255 255
255 255 255
255 255 255
255 255 255
255 255 255
255 255 255
255 255 255
255 255 255
255 255 255
255 255 255
255 255 255
255 255 255
255 255 255
255 255 255
255 255 255
255 255 255
255 255 255
0 0 0
153 153 153
153 153 153
0 0 0
0 0 0
0 0 0
0 0 0
0 0 0
0 0 0
0 0 0
0 0 0
0 0 0
0 0 0
0 0 0
0 0 0
0 0 0
0 0 0
0 0 0
0 0 0
0 0 0
0 0 0
0 0 0
0 0 0
153 153 153
153 153 153
153 153 153
153 153 153
153 153 153
153 153 153
153 153 153
153 153 153
153 153 153
153 153 153
153 153 153
153 153 153
153 153 153
153 153 153
153 153 153
153 153 153
153 153 153
153 153 153
153 153 153
153 153 153
153 153 153
153 153 153
153 153 153
0 0 0
0 0 0
0 0 0
0 0 0
0 0 0
0 0 0
0 0 0
0 0 0
0 0 0
0 0 0
0 0 0
0 0 0
0 0 0
0 0 0
0 0 0
0 0 0
0 0 0
0 0 0
0 0 0
0 0 0
0 0 0
0 0 0
0 0 0
0 0 0
0 0 0
0 0 0
0 0 0
0 0 0
0 0 0
0 0 0
0 0 0
0 0 0
0 0 0
0 0 0
0 0 0
0 0 0
0 0 0
0 0 0
0 0 0
0 0 0
0 0 0
0 0 0
0 0 0
0 0 0
0 0 0
0 0 0
172 213 172
151 203 151
130 193 130
130 193 130
151 203 151
172 213 172
0 0 0
0 0 0
0 0 0
0 0 0
0 0 0
0 0 0
172 213 172
151 203 151
130 193 130
130 193 130
151 203 151
172 213 172
0 0 0
0 0 0
0 0 0
0 0 0
172 213 172
151 203 151
130 193 130
114 185 114
120 187 120
125 190 125
146 200 146
146 200 146
146 200 146
146 200 146
146 200 146
146 200 146
125 190 125
120 187 120
114 185 114
130 193 130
151 203 151
172 213 172
0 0 0
0 0 0
0 0 0
0 0 0
172 213 172
151 203 151
130 193 130
114 185 114
120 187 120
125 190 125
146 200 146
146 200 146
146 200 146
146 200 146
146 200 146
146 200 146
125 190 125
120 187 120
114 185 114
130 193 130
151 203 151
172 213 172
0 0 0
0 0 0
0 0 0
0 0 0
172 213 172
151 203 151
130 193 130
114 185 114
120 187 120
125 190 125
146 200 146
146 200 146
146 200 146
146 200 146
146 200 146
146 200 146
125 190 125
120 187 120
114 185 114
130 193 130
151 203 151
172 213 172
0 0 0
0 0 0
0 0 0
0 0 0
0 0 0
0 0 0
0 0 0
0 0 0
0 0 0
0 0 0
0 0 0
0 0 0
0 0 0
0 0 0
0 0 0
0 0 0
0 0 0
0 0 0
0 0 0
0 0 0
0 0 0
0 0 0
0 0 0
0 0 0
0 0 0
0 0 0
0 0 0
0 0 0
0 0 0
0 0 0
0 0 0
0 0 0
0 0 0
0 0 0
0 0 0
0 0 0
0 0 0
0 0 0
0 0 0
0 0 0
0 0 0
0 0 0
0 0 0
0 0 0
0 0 0
0 0 0
0 0 0
0 0 0
0 0 0
0 0 0
0 0 0
0 0 0
0 0 0
0 0 0
0 0 0
0 0 0
0 0 0
0 0 0
0 0 0
0 0 0
0 0 0
0 0 0
0 0 0
0 0 0
0 0 0
0 0 0
0 0 0
0 0 0
0 0 0
0 0 0
0 0 0
0 0 0
0 0 0
0 0 0
0 0 0
0 0 0
0 0 0
0 0 0
0 0 0
0 0 0
0 0 0
0 0 0
0 0 0
0 0 0
0 0 0
0 0 0
0 0 0
0 0 0
0 0 0
0 0 0
0 0 0
0 0 0
185 255 255
174 255 255
162 255 255
151 255 255
139 255 255
128 128 255
0 0 0
0 0 0
0 0 0
0 0 0
0 0 0
0 0 0
209 255 255
220 255 255
232 255 255
243 255 255
255 255 255
255 255 255
0 0 0
0 0 0
0 0 0
0 0 0
185 255 255
174 255 255
162 255 255
151 255 255
139 255 255
139 255 255
139 255 255
151 255 255
162 255 255
174 255 255
185 255 255
197 255 255
209 255 255
220 255 255
232 255 255
243 255 255
255 255 255
255 255 255
0 0 0
0 0 0
0 0 0
0 0 0
185 255 255
174 255 255
162 255 255
151 255 255
151 255 255
151 255 255
151 255 255
151 255 255
162 255 255
174 255 255
185 255 255
197 255 255
209 255 255
220 255 255
232 255 255
243 255 255
255 255 255
255 255 255
0 0 0
0 0 0
0 0 0
0 0 0
185 255 255
174 255 255
162 255 255
162 255 255
162 255 255
162 255 255
162 255 255
162 255 255
162 255 255
174 255 255
185 255 255
197 255 255
209 255 255
220 255 255
232 255 255
243 255 255
255 255 255
255 255 255
0 0 0
0 0 0
0 0 0
0 0 0
0 0 0
0 0 0
0 0 0
0 0 0
0 0 0
0 0 0
0 0 0
0 0 0
0 0 0
0 0 0
0 0 0
0 0 0
0 0 0
0 0 0
0 0 0
0 0 0
0 0 0
0 0 0
0 0 0
0 0 0
0 0 0
0 0 0
0 0 0
0 0 0
0 0 0
0 0 0
0 0 0
0 0 0
0 0 0
0 0 0
0 0 0
0 0 0
0 0 0
0 0 0
0 0 0
0 0 0
0 0 0
0 0 0
0 0 0
0 0 0
0 0 0
0 0 0
